<?xml version="1.0" encoding="UTF-8"?>
<svg id="Layer_1" data-name="Layer 1" xmlns="http://www.w3.org/2000/svg" viewBox="0 0 1920 706.366">
  <defs>
    <style>
      .cls-1 {
        fill: #fff;
      }

      .cls-2 {
        fill: #0faaff;
      }

      .cls-3 {
        stroke: #231f20;
      }

      .cls-3, .cls-4 {
        fill: none;
        stroke-miterlimit: 10;
        stroke-width: 2px;
      }

      .cls-4 {
        stroke: #000;
      }

      .cls-5 {
        fill: #f7f7f7;
        opacity: .25;
      }
    </style>
  </defs>
  <rect class="cls-5" x="606.817" y="-606.817" width="706.366" height="1920" transform="translate(1313.183 -606.817) rotate(90)"/>
  <polyline class="cls-4" points="1090.287 485.464 916.203 457.217 790.204 509.596"/>
  <line class="cls-4" x1="916.36" y1="259.229" x2="916.36" y2="457.217"/>
  <g>
    <path d="M337.655,610.619c0-1.286,.168-2.466,.505-3.539s.816-1.996,1.438-2.771c.621-.773,1.368-1.374,2.24-1.8,.872-.427,1.84-.64,2.903-.64,1.72,0,3.079,.472,4.077,1.414,.999,.941,1.697,2.202,2.096,3.78l-1.579,.381c-.383-1.346-.922-2.362-1.617-3.05-.697-.688-1.696-1.031-2.999-1.031-.831,0-1.58,.172-2.246,.516s-1.233,.83-1.701,1.457c-.468,.629-.833,1.388-1.095,2.276-.263,.89-.394,1.877-.394,2.961,0,1.181,.131,2.235,.394,3.162,.262,.927,.63,1.706,1.105,2.338s1.051,1.117,1.725,1.458c.674,.34,1.426,.51,2.257,.51,1.272,0,2.308-.36,3.105-1.082,.797-.722,1.379-1.8,1.746-3.235l1.583,.337c-.413,1.697-1.162,3.033-2.248,4.01s-2.488,1.465-4.209,1.465c-1.078,0-2.054-.212-2.926-.636s-1.615-1.02-2.229-1.788c-.614-.768-1.09-1.701-1.427-2.8-.337-1.098-.505-2.329-.505-3.693Z"/>
    <path d="M354.354,619.21v-17.025h1.584v17.025h-1.584Z"/>
    <path d="M359.048,613.157c0-1.012,.146-1.908,.438-2.69s.687-1.441,1.184-1.977,1.081-.941,1.75-1.218c.67-.277,1.378-.416,2.126-.416,.734,0,1.436,.139,2.103,.416,.667,.276,1.25,.683,1.748,1.218s.894,1.194,1.186,1.977c.293,.782,.438,1.679,.438,2.69,0,1.018-.146,1.916-.438,2.695-.292,.778-.688,1.438-1.186,1.977s-1.081,.946-1.748,1.224-1.368,.415-2.103,.415-1.435-.138-2.104-.415-1.257-.685-1.762-1.224-.902-1.198-1.194-1.977c-.292-.779-.438-1.678-.438-2.695Zm1.583-.023c0,.674,.081,1.311,.242,1.91,.161,.599,.407,1.124,.736,1.577,.33,.453,.741,.814,1.231,1.084,.491,.27,1.06,.404,1.704,.404,.615,0,1.16-.124,1.637-.37,.476-.248,.883-.59,1.22-1.028,.338-.438,.595-.958,.771-1.561,.177-.603,.265-1.274,.265-2.017,0-.658-.084-1.285-.253-1.881-.169-.595-.414-1.115-.736-1.561-.323-.445-.726-.803-1.209-1.072-.484-.27-1.049-.404-1.693-.404-.614,0-1.164,.123-1.647,.37s-.895,.588-1.231,1.022c-.338,.434-.594,.954-.771,1.561-.176,.606-.265,1.262-.265,1.965Z"/>
    <path d="M372.907,615.853v-8.76h1.583v8.479c0,.861,.191,1.499,.573,1.915,.382,.415,.996,.623,1.842,.623,.778,0,1.503-.192,2.173-.578s1.35-.9,2.039-1.544v-8.895h1.583v12.117h-1.583v-1.909c-.584,.584-1.26,1.091-2.027,1.521s-1.627,.646-2.578,.646c-1.213,0-2.116-.317-2.712-.954-.595-.637-.893-1.523-.893-2.661Z"/>
    <path d="M385.71,613.14c0-1.053,.131-1.973,.393-2.761s.622-1.441,1.082-1.96,1.004-.909,1.633-1.171c.628-.261,1.301-.392,2.019-.392,.787,0,1.519,.178,2.193,.533,.675,.354,1.249,.799,1.722,1.332v-6.537h1.583v14.038c0,.733,.026,1.338,.079,1.813,.052,.476,.146,.867,.28,1.174h-1.664c-.074-.219-.14-.49-.195-.813-.056-.324-.083-.648-.083-.973-.488,.542-1.058,1.009-1.71,1.4s-1.433,.588-2.34,.588c-.688,0-1.339-.126-1.951-.377-.613-.252-1.143-.639-1.588-1.16-.444-.521-.798-1.175-1.06-1.959-.262-.785-.393-1.71-.393-2.776Zm1.584,.022c0,.832,.095,1.556,.286,2.17,.191,.615,.456,1.125,.793,1.529,.338,.405,.729,.705,1.176,.899,.445,.195,.92,.293,1.423,.293,.757,0,1.43-.179,2.019-.534,.589-.356,1.175-.842,1.761-1.456v-5.892c-.601-.645-1.202-1.14-1.806-1.484s-1.262-.517-1.974-.517c-.532,0-1.025,.099-1.479,.298-.454,.198-.842,.502-1.164,.91-.322,.409-.575,.928-.759,1.558-.185,.629-.275,1.371-.275,2.226Z"/>
    <path d="M405.564,619.21v-17.025h10.164v1.494h-8.535v5.783h6.367v1.494h-6.367v6.76h9.018v1.494h-10.646Z"/>
    <path d="M419.457,619.21v-17.025h5.684c1.913,0,3.376,.391,4.388,1.172,1.013,.781,1.519,1.924,1.519,3.427,0,1.38-.371,2.435-1.115,3.165-.743,.731-1.728,1.213-2.953,1.445l4.305,7.816h-1.842l-4.161-7.637h-4.239v7.637h-1.584Zm1.584-9.086h3.98c.705,0,1.331-.054,1.878-.162,.548-.109,1.009-.289,1.384-.541,.375-.251,.658-.588,.849-1.012,.191-.424,.287-.943,.287-1.559,0-1.162-.379-1.981-1.136-2.458s-1.852-.714-3.284-.714h-3.958v6.445Z"/>
    <path d="M434.887,619.21v-17.025h5.644c1.855,0,3.312,.383,4.37,1.149s1.588,1.932,1.588,3.494c0,.862-.149,1.597-.448,2.204-.3,.606-.721,1.105-1.263,1.495s-1.189,.677-1.94,.86c-.752,.184-1.572,.275-2.462,.275h-3.859v7.547h-1.629Zm1.629-8.996h3.976c1.4,0,2.479-.249,3.234-.748,.756-.498,1.134-1.362,1.134-2.593,0-1.147-.37-1.967-1.111-2.458s-1.834-.736-3.279-.736h-3.953v6.535Z"/>
  </g>
  <g>
    <path d="M842.409,610.686c0-1.331,.18-2.541,.539-3.629s.856-2.015,1.493-2.781,1.393-1.359,2.269-1.778c.876-.418,1.834-.628,2.875-.628s1.996,.21,2.87,.628c.875,.419,1.63,1.012,2.266,1.778,.635,.767,1.132,1.693,1.491,2.781,.358,1.088,.538,2.298,.538,3.629s-.18,2.546-.538,3.637c-.359,1.091-.856,2.021-1.491,2.789-.636,.769-1.391,1.364-2.266,1.788-.874,.424-1.831,.636-2.87,.636s-1.999-.212-2.875-.636-1.632-1.02-2.269-1.788-1.134-1.698-1.493-2.789-.539-2.303-.539-3.637Zm1.628,0c0,1.15,.139,2.183,.415,3.095,.277,.912,.661,1.686,1.151,2.321,.49,.635,1.073,1.117,1.747,1.446s1.418,.493,2.234,.493c.794,0,1.533-.164,2.218-.493,.686-.329,1.273-.812,1.764-1.446,.49-.636,.872-1.409,1.146-2.321s.41-1.944,.41-3.095c0-1.145-.137-2.172-.41-3.084s-.655-1.682-1.146-2.311c-.49-.627-1.078-1.105-1.764-1.435-.685-.329-1.424-.493-2.218-.493-.816,0-1.561,.164-2.234,.493s-1.257,.808-1.747,1.435c-.49,.629-.874,1.398-1.151,2.311-.276,.912-.415,1.939-.415,3.084Z"/>
    <path d="M859.737,619.21v-12.117h1.584v1.908c.584-.584,1.259-1.087,2.026-1.51s1.634-.635,2.601-.635c1.197,0,2.098,.314,2.7,.943s.904,1.513,.904,2.65v8.76h-1.583v-8.468c0-.854-.195-1.488-.584-1.903-.39-.416-1-.623-1.831-.623-.778,0-1.507,.187-2.185,.561-.678,.375-1.36,.892-2.049,1.551v8.883h-1.584Z"/>
    <path d="M872.775,612.674v-1.358h5.178v1.358h-5.178Z"/>
    <path d="M881.311,623.814v-16.722h1.584v1.719c.494-.517,1.062-.972,1.707-1.365,.644-.394,1.426-.59,2.347-.59,.688,0,1.34,.131,1.954,.394,.614,.262,1.142,.65,1.584,1.163,.441,.514,.793,1.165,1.055,1.956,.263,.791,.394,1.714,.394,2.771,0,1.062-.131,1.988-.394,2.777-.262,.789-.621,1.439-1.078,1.952-.456,.513-.999,.897-1.628,1.156-.629,.258-1.307,.387-2.032,.387-.779,0-1.49-.171-2.135-.514-.644-.343-1.234-.785-1.773-1.329v6.245h-1.584Zm1.584-7.695c.599,.645,1.201,1.136,1.808,1.473,.606,.338,1.262,.507,1.966,.507,.539,0,1.034-.098,1.487-.293,.453-.194,.841-.491,1.163-.888,.321-.397,.574-.907,.758-1.529s.275-1.364,.275-2.227c0-.839-.096-1.57-.287-2.192-.19-.622-.456-1.137-.797-1.546-.341-.408-.732-.712-1.174-.91-.441-.199-.917-.298-1.426-.298-.749,0-1.419,.18-2.011,.539-.592,.36-1.179,.848-1.763,1.462v5.902Z"/>
    <path d="M894.944,619.21v-12.117h1.584v2.411h.045c.479-.762,1.102-1.394,1.869-1.895,.768-.502,1.746-.753,2.938-.753h.28l-.157,1.494h-.236c-.06,0-.111-.004-.156-.012s-.075-.012-.09-.012c-1.004,0-1.884,.262-2.64,.785s-1.374,1.267-1.853,2.23v7.867h-1.584Z"/>
    <path d="M902.671,613.134c0-1.07,.157-2,.472-2.79s.727-1.441,1.235-1.954,1.076-.896,1.701-1.151,1.26-.382,1.903-.382c.712,0,1.369,.135,1.972,.404s1.123,.668,1.561,1.196c.438,.527,.784,1.187,1.039,1.977s.382,1.697,.382,2.724v.303h-8.682c0,.752,.104,1.418,.31,1.997,.206,.58,.48,1.068,.825,1.468,.345,.398,.747,.703,1.207,.914,.461,.21,.953,.315,1.477,.315,.906,0,1.646-.189,2.219-.569,.572-.38,1.091-.932,1.555-1.653l.988,.789c-.539,.85-1.195,1.52-1.971,2.011-.774,.491-1.738,.736-2.892,.736-.704,0-1.378-.135-2.021-.404s-1.207-.674-1.688-1.213c-.481-.539-.867-1.197-1.157-1.977-.29-.778-.435-1.691-.435-2.74Zm1.606-.943h7.108c-.053-.564-.155-1.093-.309-1.586s-.371-.923-.651-1.288c-.281-.365-.629-.647-1.045-.847-.415-.199-.893-.299-1.432-.299-.441,0-.865,.081-1.27,.242-.404,.162-.772,.408-1.105,.74-.333,.331-.614,.747-.843,1.248-.229,.5-.38,1.097-.454,1.789Z"/>
    <path d="M915.922,619.21v-12.117h1.584v1.908c.613-.599,1.278-1.105,1.993-1.521,.715-.415,1.529-.623,2.442-.623,1.03,0,1.797,.204,2.301,.612s.846,.934,1.024,1.577c.645-.599,1.344-1.113,2.098-1.544s1.584-.646,2.491-.646c1.244,0,2.138,.322,2.681,.966,.544,.644,.815,1.52,.815,2.628v8.76h-1.584v-8.468c0-.854-.165-1.488-.494-1.903-.33-.416-.927-.623-1.789-.623-.735,0-1.422,.187-2.059,.561-.638,.375-1.302,.892-1.992,1.551v8.883h-1.583v-8.468c0-.854-.165-1.488-.494-1.903-.329-.416-.929-.623-1.797-.623-.741,0-1.43,.187-2.066,.561-.637,.375-1.299,.892-1.987,1.551v8.883h-1.584Z"/>
    <path d="M937.014,604.284v-1.707h1.685v1.707h-1.685Zm.045,14.926v-12.117h1.584v12.117h-1.584Z"/>
    <path d="M941.596,617.289l1.011-.922c.464,.539,.998,.967,1.601,1.281s1.327,.472,2.173,.472c1.041,0,1.827-.182,2.358-.546s.797-.892,.797-1.582c0-.66-.262-1.16-.785-1.498-.524-.338-1.374-.646-2.55-.923-.672-.21-1.278-.398-1.818-.566s-.985-.387-1.337-.656c-.353-.27-.616-.587-.792-.954-.176-.366-.265-.819-.265-1.357,0-.428,.092-.834,.275-1.22s.451-.725,.803-1.017c.353-.292,.781-.522,1.286-.691,.506-.169,1.088-.253,1.747-.253,1.048,0,1.924,.157,2.627,.472,.704,.314,1.326,.742,1.865,1.281l-.898,1.057c-.457-.457-.978-.821-1.562-1.091s-1.243-.404-1.977-.404c-.479,0-.884,.05-1.213,.148-.329,.1-.597,.232-.803,.398s-.359,.354-.461,.564c-.101,.21-.151,.43-.151,.658,0,.575,.228,1.013,.684,1.312,.455,.299,1.214,.569,2.275,.812,.744,.228,1.405,.429,1.985,.605,.579,.177,1.063,.415,1.452,.714,.389,.3,.678,.652,.867,1.059,.188,.407,.283,.917,.283,1.53,0,.554-.12,1.044-.359,1.474s-.565,.794-.977,1.092c-.412,.299-.906,.523-1.482,.673-.577,.148-1.21,.224-1.898,.224-1.086,0-2.034-.201-2.847-.604s-1.451-.916-1.915-1.542Z"/>
    <path d="M953.185,613.134c0-1.07,.157-2,.472-2.79s.727-1.441,1.235-1.954,1.076-.896,1.701-1.151,1.26-.382,1.903-.382c.712,0,1.369,.135,1.972,.404s1.123,.668,1.561,1.196c.438,.527,.784,1.187,1.039,1.977s.382,1.697,.382,2.724v.303h-8.682c0,.752,.104,1.418,.31,1.997,.206,.58,.48,1.068,.825,1.468,.345,.398,.747,.703,1.207,.914,.461,.21,.953,.315,1.477,.315,.906,0,1.646-.189,2.219-.569,.572-.38,1.091-.932,1.555-1.653l.988,.789c-.539,.85-1.195,1.52-1.971,2.011-.774,.491-1.738,.736-2.892,.736-.704,0-1.378-.135-2.021-.404s-1.207-.674-1.688-1.213c-.481-.539-.867-1.197-1.157-1.977-.29-.778-.435-1.691-.435-2.74Zm1.606-.943h7.108c-.053-.564-.155-1.093-.309-1.586s-.371-.923-.651-1.288c-.281-.365-.629-.647-1.045-.847-.415-.199-.893-.299-1.432-.299-.441,0-.865,.081-1.27,.242-.404,.162-.772,.408-1.105,.74-.333,.331-.614,.747-.843,1.248-.229,.5-.38,1.097-.454,1.789Z"/>
    <path d="M971.985,619.21v-17.025h10.164v1.494h-8.535v5.783h6.367v1.494h-6.367v6.76h9.018v1.494h-10.646Z"/>
    <path d="M985.878,619.21v-17.025h5.684c1.913,0,3.376,.391,4.388,1.172,1.013,.781,1.519,1.924,1.519,3.427,0,1.38-.371,2.435-1.115,3.165-.743,.731-1.728,1.213-2.953,1.445l4.305,7.816h-1.842l-4.161-7.637h-4.239v7.637h-1.584Zm1.584-9.086h3.98c.705,0,1.331-.054,1.878-.162,.548-.109,1.009-.289,1.384-.541,.375-.251,.658-.588,.849-1.012,.191-.424,.287-.943,.287-1.559,0-1.162-.379-1.981-1.136-2.458s-1.852-.714-3.284-.714h-3.958v6.445Z"/>
    <path d="M1001.307,619.21v-17.025h5.644c1.855,0,3.312,.383,4.37,1.149s1.588,1.932,1.588,3.494c0,.862-.149,1.597-.448,2.204-.3,.606-.721,1.105-1.263,1.495s-1.189,.677-1.94,.86c-.752,.184-1.572,.275-2.462,.275h-3.859v7.547h-1.629Zm1.629-8.996h3.976c1.4,0,2.479-.249,3.234-.748,.756-.498,1.134-1.362,1.134-2.593,0-1.147-.37-1.967-1.111-2.458s-1.834-.736-3.279-.736h-3.953v6.535Z"/>
  </g>
  <g>
    <path d="M1434.91,619.21v-17.025h1.629v7.3h9.221v-7.3h1.628v17.025h-1.628v-8.232h-9.221v8.232h-1.629Z"/>
    <path d="M1449.813,623.624l.359-1.314c.173,.053,.397,.098,.674,.135,.277,.037,.614,.057,1.012,.057,.658,0,1.171-.15,1.538-.45s.682-.772,.943-1.417l.505-1.338-4.693-12.203h1.707l3.773,10.245h.045l3.75-10.245h1.651l-5.222,13.521c-.195,.539-.408,1.01-.641,1.414s-.506,.742-.82,1.012-.677,.473-1.089,.611-.909,.208-1.493,.208c-.465,0-.854-.022-1.168-.066-.314-.045-.592-.102-.832-.169Z"/>
    <path d="M1463.514,619.21v-17.025h1.584v6.672c.494-.532,1.062-.998,1.707-1.399,.644-.4,1.426-.601,2.347-.601,.688,0,1.34,.131,1.954,.394,.614,.262,1.142,.65,1.584,1.163,.441,.514,.793,1.165,1.055,1.956,.263,.791,.394,1.714,.394,2.771,0,1.062-.131,1.988-.394,2.777-.262,.789-.621,1.439-1.078,1.952-.456,.513-.999,.897-1.628,1.156-.629,.258-1.307,.387-2.032,.387-.779,0-1.49-.171-2.135-.514-.644-.343-1.234-.785-1.773-1.329v1.641h-1.584Zm1.584-3.091c.599,.645,1.201,1.136,1.808,1.473,.606,.338,1.262,.507,1.966,.507,.539,0,1.034-.098,1.487-.293,.453-.194,.841-.491,1.163-.888,.321-.397,.574-.907,.758-1.529s.275-1.364,.275-2.227c0-.839-.096-1.57-.287-2.192-.19-.622-.456-1.137-.797-1.546-.341-.408-.732-.712-1.174-.91-.441-.199-.917-.298-1.426-.298-.749,0-1.419,.18-2.011,.539-.592,.36-1.179,.848-1.763,1.462v5.902Z"/>
    <path d="M1477.148,619.21v-12.117h1.584v2.411h.045c.479-.762,1.102-1.394,1.869-1.895,.768-.502,1.746-.753,2.938-.753h.28l-.157,1.494h-.236c-.06,0-.111-.004-.156-.012s-.075-.012-.09-.012c-1.004,0-1.884,.262-2.64,.785s-1.374,1.267-1.853,2.23v7.867h-1.584Z"/>
    <path d="M1486.323,604.284v-1.707h1.685v1.707h-1.685Zm.045,14.926v-12.117h1.584v12.117h-1.584Z"/>
    <path d="M1491.085,613.14c0-1.053,.131-1.973,.393-2.761s.622-1.441,1.082-1.96,1.004-.909,1.633-1.171c.628-.261,1.301-.392,2.019-.392,.787,0,1.519,.178,2.193,.533,.675,.354,1.249,.799,1.722,1.332v-6.537h1.583v14.038c0,.733,.026,1.338,.079,1.813,.052,.476,.146,.867,.28,1.174h-1.664c-.074-.219-.14-.49-.195-.813-.056-.324-.083-.648-.083-.973-.488,.542-1.058,1.009-1.71,1.4s-1.433,.588-2.34,.588c-.688,0-1.339-.126-1.951-.377-.613-.252-1.143-.639-1.588-1.16-.444-.521-.798-1.175-1.06-1.959-.262-.785-.393-1.71-.393-2.776Zm1.584,.022c0,.832,.095,1.556,.286,2.17,.191,.615,.456,1.125,.793,1.529,.338,.405,.729,.705,1.176,.899,.445,.195,.92,.293,1.423,.293,.757,0,1.43-.179,2.019-.534,.589-.356,1.175-.842,1.761-1.456v-5.892c-.601-.645-1.202-1.14-1.806-1.484s-1.262-.517-1.974-.517c-.532,0-1.025,.099-1.479,.298-.454,.198-.842,.502-1.164,.91-.322,.409-.575,.928-.759,1.558-.185,.629-.275,1.371-.275,2.226Z"/>
    <path d="M1510.94,619.21v-17.025h10.164v1.494h-8.535v5.783h6.367v1.494h-6.367v6.76h9.018v1.494h-10.646Z"/>
    <path d="M1524.833,619.21v-17.025h5.684c1.913,0,3.376,.391,4.388,1.172,1.013,.781,1.519,1.924,1.519,3.427,0,1.38-.371,2.435-1.115,3.165-.743,.731-1.728,1.213-2.953,1.445l4.305,7.816h-1.842l-4.161-7.637h-4.239v7.637h-1.584Zm1.584-9.086h3.98c.705,0,1.331-.054,1.878-.162,.548-.109,1.009-.289,1.384-.541,.375-.251,.658-.588,.849-1.012,.191-.424,.287-.943,.287-1.559,0-1.162-.379-1.981-1.136-2.458s-1.852-.714-3.284-.714h-3.958v6.445Z"/>
    <path d="M1540.262,619.21v-17.025h5.644c1.855,0,3.312,.383,4.37,1.149s1.588,1.932,1.588,3.494c0,.862-.149,1.597-.448,2.204-.3,.606-.721,1.105-1.263,1.495s-1.189,.677-1.94,.86c-.752,.184-1.572,.275-2.462,.275h-3.859v7.547h-1.629Zm1.629-8.996h3.976c1.4,0,2.479-.249,3.234-.748,.756-.498,1.134-1.362,1.134-2.593,0-1.147-.37-1.967-1.111-2.458s-1.834-.736-3.279-.736h-3.953v6.535Z"/>
  </g>
  <path class="cls-3" d="M296.295,472.291h-31.834v-.065c-30.128-1.35-54.14-26.196-54.14-56.656,0-31.326,25.395-56.722,56.722-56.722,2.075,0,4.122,.119,6.139,.336,2.525-28.991,26.844-51.74,56.491-51.74,.79,0,1.574,.028,2.356,.06,7.983-25.523,29.217-47.995,58.68-58.381,46.626-16.436,96.189,3.615,110.702,44.786,3.968,11.257,4.899,22.927,3.213,34.279,39.234,.656,70.842,32.645,70.842,72.036,0,29.569-17.814,54.965-43.292,66.07-7.437,3.242-15.496,4.807-23.609,4.845h-21l-191.27,1.152Z"/>
  <path class="cls-3" d="M1395.38,276.579h-26.682v-.055c-25.252-1.132-45.378-21.956-45.378-47.487,0-26.257,21.285-47.542,47.542-47.542,1.739,0,3.455,.1,5.146,.282,2.116-24.3,22.5-43.366,47.349-43.366,.662,0,1.319,.023,1.975,.05,6.691-21.393,24.488-40.228,49.183-48.933,39.08-13.776,80.622,3.03,92.786,37.538,3.326,9.435,4.106,19.216,2.693,28.731,32.885,.55,59.377,27.362,59.377,60.378,0,24.784-14.931,46.069-36.286,55.378-6.233,2.717-12.988,4.029-19.788,4.061h-17.602l-160.315,.965Z"/>
  <circle class="cls-2" cx="937.03" cy="403.17" r="84.658"/>
  <g>
    <path class="cls-1" d="M895.76,420.741v-35.05h21.501v3.838h-17.316v10.936h12.878v3.745h-12.878v12.739h18.311v3.792h-22.495Z"/>
    <path class="cls-1" d="M924.591,420.741v-35.05h12.045c4.008,0,7.083,.82,9.226,2.462,2.142,1.642,3.213,4.089,3.213,7.341,0,2.852-.731,5.032-2.196,6.543-1.464,1.511-3.444,2.535-5.941,3.075l8.624,15.629h-4.555l-8.37-15.098h-7.907v15.098h-4.138Zm4.138-18.797h7.653c2.743,0,4.858-.45,6.347-1.353,1.487-.901,2.23-2.547,2.23-4.936,0-2.312-.732-3.919-2.196-4.821-1.465-.901-3.606-1.353-6.428-1.353h-7.606v12.462Z"/>
    <path class="cls-1" d="M956.635,420.741v-35.05h11.884c1.896,0,3.618,.192,5.167,.578,1.549,.385,2.882,.979,4,1.779,1.117,.802,1.977,1.835,2.577,3.099,.602,1.264,.902,2.767,.902,4.509,0,1.85-.332,3.43-.994,4.739-.663,1.311-1.568,2.378-2.717,3.202s-2.513,1.418-4.093,1.78-3.286,.543-5.121,.543h-7.421v14.82h-4.185Zm4.185-18.52h7.652c2.821,0,4.955-.481,6.404-1.444,1.449-.964,2.174-2.625,2.174-4.982,0-2.281-.717-3.903-2.15-4.867-1.434-.963-3.592-1.445-6.474-1.445h-7.606v12.739Z"/>
  </g>
  <circle class="cls-2" cx="392.893" cy="452.035" r="84.658"/>
  <g>
    <path class="cls-1" d="M351.624,469.606v-35.05h21.501v3.838h-17.316v10.936h12.878v3.745h-12.878v12.739h18.311v3.792h-22.495Z"/>
    <path class="cls-1" d="M380.455,469.606v-35.05h12.045c4.008,0,7.083,.82,9.226,2.462,2.142,1.642,3.213,4.089,3.213,7.341,0,2.852-.731,5.032-2.196,6.543-1.464,1.511-3.444,2.535-5.941,3.075l8.624,15.629h-4.555l-8.37-15.098h-7.907v15.098h-4.138Zm4.138-18.797h7.653c2.743,0,4.858-.45,6.347-1.353,1.487-.901,2.23-2.547,2.23-4.936,0-2.312-.732-3.919-2.196-4.821-1.465-.901-3.606-1.353-6.428-1.353h-7.606v12.462Z"/>
    <path class="cls-1" d="M412.499,469.606v-35.05h11.884c1.896,0,3.618,.192,5.167,.578,1.549,.385,2.882,.979,4,1.779,1.117,.802,1.977,1.835,2.577,3.099,.602,1.264,.902,2.767,.902,4.509,0,1.85-.332,3.43-.994,4.739-.663,1.311-1.568,2.378-2.717,3.202s-2.513,1.418-4.093,1.78-3.286,.543-5.121,.543h-7.421v14.82h-4.185Zm4.185-18.52h7.652c2.821,0,4.955-.481,6.404-1.444,1.449-.964,2.174-2.625,2.174-4.982,0-2.281-.717-3.903-2.15-4.867-1.434-.963-3.592-1.445-6.474-1.445h-7.606v12.739Z"/>
  </g>
  <polyline class="cls-4" points="790.204 311.608 964.288 339.855 1090.287 287.476"/>
  <polygon class="cls-4" points="1090.287 485.66 964.288 538.039 790.204 509.792 790.204 509.596 790.204 311.608 916.203 259.229 1090.287 287.476 1090.287 485.464 1090.287 485.66"/>
  <line class="cls-4" x1="964.215" y1="339.855" x2="964.215" y2="537.843"/>
  <g>
    <polyline class="cls-4" points="1611.799 493.972 1465.888 470.297 1360.281 514.199"/>
    <line class="cls-4" x1="1466.02" y1="304.351" x2="1466.02" y2="470.297"/>
    <polyline class="cls-4" points="1360.281 348.253 1506.192 371.929 1611.799 328.026"/>
    <polygon class="cls-4" points="1611.799 494.137 1506.192 538.039 1360.281 514.364 1360.281 514.199 1360.281 348.253 1465.888 304.351 1611.799 328.026 1611.799 493.972 1611.799 494.137"/>
    <line class="cls-4" x1="1506.13" y1="371.929" x2="1506.13" y2="537.875"/>
  </g>
  <g>
    <circle class="cls-2" cx="1485.892" cy="259.008" r="84.658"/>
    <g>
      <path class="cls-1" d="M1444.623,276.578v-35.05h21.501v3.838h-17.316v10.936h12.878v3.745h-12.878v12.739h18.311v3.792h-22.495Z"/>
      <path class="cls-1" d="M1473.454,276.578v-35.05h12.045c4.008,0,7.083,.82,9.226,2.462,2.142,1.642,3.213,4.089,3.213,7.341,0,2.852-.731,5.032-2.196,6.543-1.464,1.511-3.444,2.535-5.941,3.075l8.624,15.629h-4.555l-8.37-15.098h-7.907v15.098h-4.138Zm4.138-18.797h7.653c2.743,0,4.858-.45,6.347-1.353,1.487-.901,2.23-2.547,2.23-4.936,0-2.312-.732-3.919-2.196-4.821-1.465-.901-3.606-1.353-6.428-1.353h-7.606v12.462Z"/>
      <path class="cls-1" d="M1505.498,276.578v-35.05h11.884c1.896,0,3.618,.192,5.167,.578,1.549,.385,2.882,.979,4,1.779,1.117,.802,1.977,1.835,2.577,3.099,.602,1.264,.902,2.767,.902,4.509,0,1.85-.332,3.43-.994,4.739-.663,1.311-1.568,2.378-2.717,3.202s-2.513,1.418-4.093,1.78-3.286,.543-5.121,.543h-7.421v14.82h-4.185Zm4.185-18.52h7.652c2.821,0,4.955-.481,6.404-1.444,1.449-.964,2.174-2.625,2.174-4.982,0-2.281-.717-3.903-2.15-4.867-1.434-.963-3.592-1.445-6.474-1.445h-7.606v12.739Z"/>
    </g>
  </g>
</svg>